<svg width="497" height="112" viewBox="0 0 497 112" fill="none" xmlns="http://www.w3.org/2000/svg">
<mask id="path-1-outside-1" maskUnits="userSpaceOnUse" x="0" y="0" width="497" height="112" fill="black">
<rect fill="white" width="497" height="112"/>
<path d="M82.328 5V105.368H69.224V59.864H18.104V105.368H5V5H18.104V49.064H69.224V5H82.328Z"/>
<path d="M99.8071 65.624C99.8071 57.56 101.439 50.504 104.703 44.456C107.967 38.312 112.431 33.56 118.095 30.2C123.855 26.84 130.239 25.16 137.247 25.16C144.159 25.16 150.159 26.648 155.247 29.624C160.335 32.6 164.127 36.344 166.623 40.856V26.456H179.871V105.368H166.623V90.68C164.031 95.288 160.143 99.128 154.959 102.2C149.871 105.176 143.919 106.664 137.103 106.664C130.095 106.664 123.759 104.936 118.095 101.48C112.431 98.024 107.967 93.176 104.703 86.936C101.439 80.696 99.8071 73.592 99.8071 65.624ZM166.623 65.768C166.623 59.816 165.423 54.632 163.023 50.216C160.623 45.8 157.359 42.44 153.231 40.136C149.199 37.736 144.735 36.536 139.839 36.536C134.943 36.536 130.479 37.688 126.447 39.992C122.415 42.296 119.199 45.656 116.799 50.072C114.399 54.488 113.199 59.672 113.199 65.624C113.199 71.672 114.399 76.952 116.799 81.464C119.199 85.88 122.415 89.288 126.447 91.688C130.479 93.992 134.943 95.144 139.839 95.144C144.735 95.144 149.199 93.992 153.231 91.688C157.359 89.288 160.623 85.88 163.023 81.464C165.423 76.952 166.623 71.72 166.623 65.768Z"/>
<path d="M296.912 25.016C303.056 25.016 308.528 26.312 313.328 28.904C318.128 31.4 321.92 35.192 324.704 40.28C327.488 45.368 328.88 51.56 328.88 58.856V105.368H315.92V60.728C315.92 52.856 313.952 46.856 310.016 42.728C306.176 38.504 300.944 36.392 294.32 36.392C287.504 36.392 282.08 38.6 278.048 43.016C274.016 47.336 272 53.624 272 61.88V105.368H259.04V60.728C259.04 52.856 257.072 46.856 253.136 42.728C249.296 38.504 244.064 36.392 237.44 36.392C230.624 36.392 225.2 38.6 221.168 43.016C217.136 47.336 215.12 53.624 215.12 61.88V105.368H202.016V26.456H215.12V37.832C217.712 33.704 221.168 30.536 225.488 28.328C229.904 26.12 234.752 25.016 240.032 25.016C246.656 25.016 252.512 26.504 257.6 29.48C262.688 32.456 266.48 36.824 268.976 42.584C271.184 37.016 274.832 32.696 279.92 29.624C285.008 26.552 290.672 25.016 296.912 25.016Z"/>
<path d="M360.167 94.568H398.903V105.368H345.191V94.568L383.495 37.112H345.479V26.456H398.615V37.112L360.167 94.568Z"/>
<path d="M411.01 65.624C411.01 57.56 412.642 50.504 415.906 44.456C419.17 38.312 423.634 33.56 429.298 30.2C435.058 26.84 441.442 25.16 448.45 25.16C455.362 25.16 461.362 26.648 466.45 29.624C471.538 32.6 475.33 36.344 477.826 40.856V26.456H491.074V105.368H477.826V90.68C475.234 95.288 471.346 99.128 466.162 102.2C461.074 105.176 455.122 106.664 448.306 106.664C441.298 106.664 434.962 104.936 429.298 101.48C423.634 98.024 419.17 93.176 415.906 86.936C412.642 80.696 411.01 73.592 411.01 65.624ZM477.826 65.768C477.826 59.816 476.626 54.632 474.226 50.216C471.826 45.8 468.562 42.44 464.434 40.136C460.402 37.736 455.938 36.536 451.042 36.536C446.146 36.536 441.682 37.688 437.65 39.992C433.618 42.296 430.402 45.656 428.002 50.072C425.602 54.488 424.402 59.672 424.402 65.624C424.402 71.672 425.602 76.952 428.002 81.464C430.402 85.88 433.618 89.288 437.65 91.688C441.682 93.992 446.146 95.144 451.042 95.144C455.938 95.144 460.402 93.992 464.434 91.688C468.562 89.288 471.826 85.88 474.226 81.464C476.626 76.952 477.826 71.72 477.826 65.768Z"/>
</mask>
<path d="M82.328 5V105.368H69.224V59.864H18.104V105.368H5V5H18.104V49.064H69.224V5H82.328Z" stroke="white" stroke-width="10" mask="url(#path-1-outside-1)"/>
<path d="M99.8071 65.624C99.8071 57.56 101.439 50.504 104.703 44.456C107.967 38.312 112.431 33.56 118.095 30.2C123.855 26.84 130.239 25.16 137.247 25.16C144.159 25.16 150.159 26.648 155.247 29.624C160.335 32.6 164.127 36.344 166.623 40.856V26.456H179.871V105.368H166.623V90.68C164.031 95.288 160.143 99.128 154.959 102.2C149.871 105.176 143.919 106.664 137.103 106.664C130.095 106.664 123.759 104.936 118.095 101.48C112.431 98.024 107.967 93.176 104.703 86.936C101.439 80.696 99.8071 73.592 99.8071 65.624ZM166.623 65.768C166.623 59.816 165.423 54.632 163.023 50.216C160.623 45.8 157.359 42.44 153.231 40.136C149.199 37.736 144.735 36.536 139.839 36.536C134.943 36.536 130.479 37.688 126.447 39.992C122.415 42.296 119.199 45.656 116.799 50.072C114.399 54.488 113.199 59.672 113.199 65.624C113.199 71.672 114.399 76.952 116.799 81.464C119.199 85.88 122.415 89.288 126.447 91.688C130.479 93.992 134.943 95.144 139.839 95.144C144.735 95.144 149.199 93.992 153.231 91.688C157.359 89.288 160.623 85.88 163.023 81.464C165.423 76.952 166.623 71.72 166.623 65.768Z" stroke="white" stroke-width="10" mask="url(#path-1-outside-1)"/>
<path d="M296.912 25.016C303.056 25.016 308.528 26.312 313.328 28.904C318.128 31.4 321.92 35.192 324.704 40.28C327.488 45.368 328.88 51.56 328.88 58.856V105.368H315.92V60.728C315.92 52.856 313.952 46.856 310.016 42.728C306.176 38.504 300.944 36.392 294.32 36.392C287.504 36.392 282.08 38.6 278.048 43.016C274.016 47.336 272 53.624 272 61.88V105.368H259.04V60.728C259.04 52.856 257.072 46.856 253.136 42.728C249.296 38.504 244.064 36.392 237.44 36.392C230.624 36.392 225.2 38.6 221.168 43.016C217.136 47.336 215.12 53.624 215.12 61.88V105.368H202.016V26.456H215.12V37.832C217.712 33.704 221.168 30.536 225.488 28.328C229.904 26.12 234.752 25.016 240.032 25.016C246.656 25.016 252.512 26.504 257.6 29.48C262.688 32.456 266.48 36.824 268.976 42.584C271.184 37.016 274.832 32.696 279.92 29.624C285.008 26.552 290.672 25.016 296.912 25.016Z" stroke="white" stroke-width="10" mask="url(#path-1-outside-1)"/>
<path d="M360.167 94.568H398.903V105.368H345.191V94.568L383.495 37.112H345.479V26.456H398.615V37.112L360.167 94.568Z" stroke="white" stroke-width="10" mask="url(#path-1-outside-1)"/>
<path d="M411.01 65.624C411.01 57.56 412.642 50.504 415.906 44.456C419.17 38.312 423.634 33.56 429.298 30.2C435.058 26.84 441.442 25.16 448.45 25.16C455.362 25.16 461.362 26.648 466.45 29.624C471.538 32.6 475.33 36.344 477.826 40.856V26.456H491.074V105.368H477.826V90.68C475.234 95.288 471.346 99.128 466.162 102.2C461.074 105.176 455.122 106.664 448.306 106.664C441.298 106.664 434.962 104.936 429.298 101.48C423.634 98.024 419.17 93.176 415.906 86.936C412.642 80.696 411.01 73.592 411.01 65.624ZM477.826 65.768C477.826 59.816 476.626 54.632 474.226 50.216C471.826 45.8 468.562 42.44 464.434 40.136C460.402 37.736 455.938 36.536 451.042 36.536C446.146 36.536 441.682 37.688 437.65 39.992C433.618 42.296 430.402 45.656 428.002 50.072C425.602 54.488 424.402 59.672 424.402 65.624C424.402 71.672 425.602 76.952 428.002 81.464C430.402 85.88 433.618 89.288 437.65 91.688C441.682 93.992 446.146 95.144 451.042 95.144C455.938 95.144 460.402 93.992 464.434 91.688C468.562 89.288 471.826 85.88 474.226 81.464C476.626 76.952 477.826 71.72 477.826 65.768Z" stroke="white" stroke-width="10" mask="url(#path-1-outside-1)"/>
</svg>
