<svg xmlns="http://www.w3.org/2000/svg" width="1644.591" height="411.032" viewBox="0 0 1644.591 411.032">
  <defs>
    <style>
      .cls-1 {
        fill: #fff;
        fill-rule: evenodd;
      }
    </style>
  </defs>
  <path id="Color_Fill_1" data-name="Color Fill 1" class="cls-1" d="M146.708,502.921v404.4h52.2v-189.6h195.6v189.6h52.8v-404.4h-52.8v169.2h-195.6v-169.2h-52.2Zm598.2,404.4c-3.6-19.8-4.8-44.4-4.8-69.6v-108.6c0-58.2-21.6-118.8-110.4-118.8-36.6,0-71.4,10.2-95.4,25.8l12,34.8c20.4-13.2,48.6-21.6,75.6-21.6,59.4,0,66,43.2,66,67.2v6c-112.2-.6-174.6,37.8-174.6,108,0,42,30,83.4,88.8,83.4,41.4,0,72.6-20.4,88.8-43.2h1.8l4.2,36.6h48Zm-55.8-97.8a55.108,55.108,0,0,1-3,16.8c-8.4,24.6-32.4,48.6-70.2,48.6-27,0-49.8-16.2-49.8-50.4,0-56.4,65.4-66.6,123-65.4v50.4Zm136.195,97.8h51.6v-175.2c0-9,1.2-18,4.2-25.8,8.4-26.4,32.4-52.8,65.4-52.8,40.2,0,60.6,33.6,60.6,79.8v174h51.6v-179.4a86.951,86.951,0,0,1,4.2-26.4c9-25.8,32.4-48,62.4-48,42.6,0,63,33.6,63,89.4v164.4h51.6v-171c0-100.8-57-126-95.4-126-27.6,0-46.8,7.2-64.2,20.4a119.621,119.621,0,0,0-32.4,37.8h-1.2c-12.6-34.2-42.6-58.2-82.2-58.2-48,0-75,25.8-91.2,53.4h-1.8l-2.4-46.8H822.9c1.8,24,2.4,48.6,2.4,78.6v211.8Zm467.4,0h235.8v-42H1358.7v-1.2c13.2-15,25.2-29.4,37.2-45.6l129.6-168.6,0.6-33H1304.7v42.6h157.2v1.2c-13.2,15.6-25.2,29.4-37.8,45l-131.4,171v30.6Zm498.6,0c-3.6-19.8-4.8-44.4-4.8-69.6v-108.6c0-58.2-21.6-118.8-110.4-118.8-36.6,0-71.4,10.2-95.4,25.8l12,34.8c20.4-13.2,48.6-21.6,75.6-21.6,59.4,0,66,43.2,66,67.2v6c-112.2-.6-174.6,37.8-174.6,108,0,42,30,83.4,88.8,83.4,41.4,0,72.6-20.4,88.8-43.2h1.8l4.2,36.6h48Zm-55.8-97.8a55.108,55.108,0,0,1-3,16.8c-8.4,24.6-32.4,48.6-70.2,48.6-27,0-49.8-16.2-49.8-50.4,0-56.4,65.4-66.6,123-65.4v50.4Z" transform="translate(-146.719 -502.906)"/>
</svg>
